<?xml version="1.0" encoding="UTF-8"?>
<svg version="1.1" xmlns="http://www.w3.org/2000/svg" width="2900" height="2989">
<path d="M0 0 C957 0 1914 0 2900 0 C2900 986.37 2900 1972.74 2900 2989 C1943 2989 986 2989 0 2989 C0 2002.63 0 1016.26 0 0 Z " fill="#000000" transform="translate(0,0)"/>
<path d="M0 0 C1.30159058 -0.00012085 2.60318115 -0.0002417 3.94421387 -0.00036621 C25.11762196 0.02758162 45.70874512 1.14379925 66.625 4.375 C68.70046158 4.66708801 70.77597831 4.95878455 72.8515625 5.25 C109.97267981 10.79629091 147.40534551 23.68897446 180.53369141 41.27636719 C182.97166478 42.55711435 185.42837925 43.79786565 187.88671875 45.0390625 C207.67322192 55.09532933 226.55971665 66.48191644 244.625 79.375 C245.36621094 79.89980957 246.10742188 80.42461914 246.87109375 80.96533203 C256.05077149 87.47014943 265.04552337 94.08624109 273.625 101.375 C274.71576118 102.29212434 275.8069288 103.20876545 276.8984375 104.125 C282.86482793 109.14285228 288.78835487 114.20658835 294.625 119.375 C295.30079102 119.96667969 295.97658203 120.55835938 296.67285156 121.16796875 C303.79349873 127.47439202 310.55137037 134.11520462 317.27514648 140.83984375 C319.1825894 142.74509504 321.09791467 144.64217613 323.01367188 146.5390625 C330.02184106 153.51551435 336.48549449 160.61531343 342.625 168.375 C343.61936984 169.53946144 344.62207423 170.6969116 345.63671875 171.84375 C397.33205882 230.30623913 429.97328817 304.26731195 444.625 380.375 C444.81328369 381.31738525 445.00156738 382.25977051 445.19555664 383.23071289 C445.70972152 386.99531179 445.65181239 390.57546062 445.625 394.375 C424.04158176 384.17505347 402.48833022 373.91607479 381.04317474 363.42824173 C374.41739534 360.18979208 367.78164547 356.97606291 361.1171875 353.81787109 C355.2399882 351.0326751 349.38679733 348.20286035 343.55699396 345.31970382 C340.49216916 343.80581592 337.42095192 342.31424867 334.31962585 340.87641144 C318.11077175 333.29556889 309.09374271 326.54865929 302.53058052 309.60449028 C301.33822042 306.66896418 299.79750963 304.0163044 298.12890625 301.328125 C297.39462402 300.13872314 297.39462402 300.13872314 296.64550781 298.92529297 C295.92379395 297.78664795 295.92379395 297.78664795 295.1875 296.625 C294.65092773 295.76922363 294.11435547 294.91344727 293.56152344 294.03173828 C281.89462442 275.60186529 268.67122262 259.14197154 253.625 243.375 C252.86960937 242.57707031 252.11421875 241.77914062 251.3359375 240.95703125 C226.48547928 215.33958358 193.37664379 196.78629415 160.29492188 184.37792969 C158.07846748 183.54534056 155.8735572 182.69088161 153.671875 181.8203125 C143.58849133 177.97333437 133.18567644 175.50517587 122.625 173.375 C121.63886719 173.17455078 120.65273437 172.97410156 119.63671875 172.76757812 C90.15479924 167.05475382 57.13963901 166.6423889 27.625 172.375 C26.1080957 172.66503906 26.1080957 172.66503906 24.56054688 172.9609375 C-29.65655023 183.67865529 -78.96783023 209.75762979 -122.375 243.375 C-122.99487793 243.85066406 -123.61475586 244.32632813 -124.25341797 244.81640625 C-131.12098643 250.08782612 -137.78088553 255.47753176 -144.16015625 261.33984375 C-146.14065997 263.15967169 -148.15126277 264.93066331 -150.1875 266.6875 C-158.98718887 274.38064117 -167.46998948 282.37679119 -175.75 290.625 C-176.40355469 291.2739624 -177.05710937 291.9229248 -177.73046875 292.59155273 C-181.56269178 296.43597097 -185.20241523 300.39591583 -188.74951172 304.50439453 C-191.02444479 307.12237848 -193.38600975 309.64958254 -195.75 312.1875 C-200.0437538 316.83538542 -204.1103184 321.61916348 -208.078125 326.55078125 C-210.10076606 329.03780418 -212.16761411 331.4788506 -214.25830078 333.90869141 C-220.78735385 341.51075784 -226.87453524 349.41988742 -232.90283203 357.42236328 C-234.18888683 359.12814541 -235.48248433 360.82823554 -236.77734375 362.52734375 C-247.10296199 376.1392347 -256.76088207 390.25542789 -266.375 404.375 C-266.78331055 404.973125 -267.19162109 405.57125 -267.61230469 406.1875 C-268.74589129 407.85120778 -269.87312277 409.51924047 -271 411.1875 C-271.94746094 412.58935547 -271.94746094 412.58935547 -272.9140625 414.01953125 C-274.5067129 416.38464008 -274.5067129 416.38464008 -275.375 419.375 C-274.20066406 419.72175781 -273.02632812 420.06851562 -271.81640625 420.42578125 C-264.6921952 422.80422952 -258.03805435 426.25440945 -251.3125 429.5625 C-249.90187208 430.2517507 -248.49106355 430.94063185 -247.08007812 431.62915039 C-243.17475448 433.53709542 -239.27453849 435.4552605 -235.375 437.375 C-234.1377417 437.98118164 -234.1377417 437.98118164 -232.87548828 438.59960938 C-229.17120534 440.41506132 -225.48351148 442.26108168 -221.80859375 444.13525391 C-219.90654471 445.10421509 -218.00248615 446.0692319 -216.09765625 447.03271484 C-199.37272545 455.4957572 -182.99191849 464.30107433 -166.88330078 473.8984375 C-163.4175485 475.93862338 -159.89916969 477.87576523 -156.375 479.8125 C-145.43828921 485.87706204 -134.92685658 492.67181158 -124.375 499.375 C-123.17278809 500.13780273 -123.17278809 500.13780273 -121.94628906 500.91601562 C-111.35339933 507.65482713 -100.97327811 514.68756237 -90.64013672 521.81689453 C-88.52725936 523.2702663 -86.40793969 524.71349347 -84.28515625 526.15234375 C-69.25517544 536.36071865 -54.72884771 547.24156684 -40.375 558.375 C-39.27675781 559.21578002 -38.1777845 560.05560579 -37.078125 560.89453125 C-30.95467675 565.56983645 -24.91827857 570.33251279 -18.9765625 575.23828125 C-16.52675998 577.25035629 -14.05012507 579.22251929 -11.5625 581.1875 C-5.64254787 585.9103686 0.07477439 590.86246235 5.80615234 595.81054688 C7.58980159 597.34472464 9.38119233 598.86926584 11.17578125 600.390625 C18.14056169 606.30315157 24.93750569 612.35749324 31.62109375 618.5859375 C34.19760813 620.98635625 36.80886736 623.34411131 39.4375 625.6875 C51.97881255 636.95099825 64.07313035 648.65839841 75.97387695 660.59350586 C78.21385186 662.8389158 80.45922696 665.07882839 82.70507812 667.31835938 C84.15917542 668.77311646 85.61296303 670.22818318 87.06640625 671.68359375 C87.72379288 672.33895615 88.3811795 672.99431854 89.05848694 673.66954041 C92.91374125 677.5441292 96.58284695 681.53032882 100.14585876 685.67567444 C101.88422798 687.67281654 103.72060007 689.53626904 105.625 691.375 C108.83934731 694.5461603 111.84250963 697.83082753 114.78515625 701.25390625 C116.82008819 703.59991058 118.90790967 705.8923645 121 708.1875 C124.94749469 712.55650683 128.6692459 717.07492841 132.37109375 721.65234375 C134.57646704 724.31637353 136.8567631 726.88288442 139.1875 729.4375 C143.56143855 734.24958784 147.62007959 739.25395422 151.625 744.375 C153.35328587 746.58402424 155.08269863 748.79216236 156.8125 751 C157.50472656 751.88558594 157.50472656 751.88558594 158.2109375 752.7890625 C161.21343644 756.61786224 164.27431279 760.3920952 167.37036133 764.14550781 C174.28638516 772.54627504 180.70563498 781.23145593 187.00439453 790.1015625 C189.13467246 793.08998493 191.29190075 796.0584134 193.44921875 799.02734375 C205.65060455 815.83748545 217.47344031 832.84835233 228.625 850.375 C229.20330566 851.28169434 229.78161133 852.18838867 230.37744141 853.12255859 C240.19764827 868.55812133 249.52820736 884.25622205 258.70800781 900.07714844 C260.42938136 903.03847216 262.16104513 905.99336921 263.8984375 908.9453125 C268.49029197 916.76742548 272.86145037 924.60163748 276.8359375 932.7578125 C278.89790551 936.97323515 281.11073877 941.10641661 283.3125 945.25 C294.26208533 965.98249726 304.32420993 987.03982043 313.78973389 1008.48309326 C314.59280569 1010.30207877 315.39816202 1012.12005515 316.20361328 1013.93798828 C324.38337208 1032.46668011 331.75077759 1051.25685778 338.82427979 1070.22930908 C339.6152768 1072.34894473 340.40960072 1074.46730805 341.20458984 1076.58544922 C365.46922262 1141.33883883 382.24948853 1208.41128268 394.625 1276.375 C394.82681885 1277.47663483 394.82681885 1277.47663483 395.03271484 1278.6005249 C396.64349439 1287.41675243 398.09708053 1296.21870076 399.125 1305.125 C399.92212684 1311.78301245 400.7552686 1318.42705111 401.75 1325.05859375 C404.89617944 1346.06589606 406.69074994 1367.20085017 408.25 1388.375 C408.31243896 1389.21647583 408.37487793 1390.05795166 408.43920898 1390.92492676 C409.87201594 1410.39340536 410.7846756 1429.81686818 410.79296875 1449.33984375 C410.79620332 1451.19177777 410.79956878 1453.04371157 410.80305481 1454.89564514 C410.80898154 1458.75359688 410.8109018 1462.61152646 410.81030273 1466.46948242 C410.81022211 1470.33443954 410.8170739 1474.19927651 410.83081055 1478.06420898 C410.94683594 1511.26883328 409.92442603 1544.29689921 406.875 1577.375 C406.79296326 1578.28304382 406.71092651 1579.19108765 406.62640381 1580.12664795 C403.65069282 1612.79792656 399.21277611 1645.28983709 393.31884766 1677.56054688 C392.67021067 1681.12645264 392.04118649 1684.69520386 391.41796875 1688.265625 C385.3977106 1722.30149454 377.48021672 1756.0919546 367.56787109 1789.20019531 C366.88981691 1791.48331715 366.22210198 1793.76951897 365.56103516 1796.05761719 C362.00154349 1808.37023828 358.10136248 1820.56630178 354.125 1832.75 C353.59993866 1834.35888596 353.59993866 1834.35888596 353.06427002 1836.00027466 C339.99852144 1875.93211256 324.60514003 1914.81008305 307.15234375 1953.0234375 C305.66291816 1956.29179339 304.18900159 1959.56673147 302.71875 1962.84375 C297.46862472 1974.49700147 291.90701216 1985.90113246 285.82910156 1997.14453125 C283.82501156 2000.85689261 281.85029701 2004.58476213 279.875 2008.3125 C279.49682129 2009.0238208 279.11864258 2009.7351416 278.72900391 2010.46801758 C276.70781909 2014.28109313 274.75803761 2018.11623493 272.875 2022 C263.03912137 2041.7789603 251.21293083 2060.58744999 239.625 2079.375 C238.81530762 2080.68911865 238.81530762 2080.68911865 237.98925781 2082.02978516 C216.73523705 2116.40469613 193.3539726 2149.42407971 168.625 2181.375 C168.16029297 2181.97618652 167.69558594 2182.57737305 167.21679688 2183.19677734 C156.245312 2197.36104325 144.79130308 2211.12592831 133.07958984 2224.68212891 C131.62269473 2226.3776829 130.17882521 2228.08351026 128.73828125 2229.79296875 C122.68259054 2236.96020477 116.42913049 2243.89378998 109.96362305 2250.69482422 C106.92110558 2253.8990853 103.9417267 2257.13432817 101.05078125 2260.4765625 C97.60223799 2264.44960086 93.93167106 2268.13000464 90.1640625 2271.796875 C87.40922853 2274.50798145 84.80148655 2277.28652109 82.27734375 2280.21484375 C78.43731837 2284.65180798 74.34655076 2288.80091036 70.1875 2292.9375 C69.47529297 2293.65357422 68.76308594 2294.36964844 68.02929688 2295.10742188 C63.96599486 2299.16334278 59.79698341 2303.02140943 55.44897461 2306.76928711 C52.8825967 2309.02856532 50.5140483 2311.42838427 48.125 2313.875 C44.48940864 2317.55988963 40.77887033 2321.08235904 36.83984375 2324.44140625 C34.51163662 2326.47396803 32.25340339 2328.56900071 29.99511719 2330.6784668 C24.58562361 2335.73083334 19.06969955 2340.53715303 13.29296875 2345.171875 C10.54110462 2347.44427818 7.92761857 2349.82194831 5.3125 2352.25 C0.70228643 2356.49297039 -4.09426958 2360.37376663 -9.04663086 2364.20092773 C-13.04539371 2367.30009117 -16.91955195 2370.50842735 -20.75 2373.8125 C-27.41109582 2379.5322428 -34.42424534 2384.73602315 -41.47753906 2389.95800781 C-44.26443769 2392.03921724 -47.0051562 2394.17608505 -49.75 2396.3125 C-71.46244702 2413.10745863 -94.24522139 2428.61252191 -117.375 2443.375 C-118.1366748 2443.86387695 -118.89834961 2444.35275391 -119.68310547 2444.85644531 C-161.46264266 2471.66043686 -205.21386504 2497.59018186 -250.84765625 2517.34765625 C-254.32692264 2518.8680832 -257.71113798 2520.53308422 -261.09765625 2522.25 C-267.55197962 2525.50336981 -274.11651248 2528.44480691 -280.75 2531.3125 C-281.38005951 2531.58512665 -282.01011902 2531.8577533 -282.65927124 2532.13864136 C-329.65514713 2552.42433276 -377.87811806 2569.79858831 -427.20263672 2583.48828125 C-430.54367545 2584.42214709 -433.87734584 2585.37975435 -437.2109375 2586.33984375 C-482.86860907 2599.38982592 -529.42055838 2608.45761312 -576.375 2615.375 C-577.34570435 2615.51808594 -578.31640869 2615.66117188 -579.31652832 2615.80859375 C-611.00180212 2620.44306496 -642.74553951 2623.1470809 -674.69403076 2625.19955444 C-677.10547914 2625.35736226 -679.5158884 2625.52526487 -681.92626953 2625.69848633 C-691.09512928 2626.34376609 -700.187308 2626.49686382 -709.375 2626.4375 C-710.74739415 2626.4324616 -712.11979015 2626.42790294 -713.4921875 2626.42382812 C-716.78650792 2626.41222841 -720.08072784 2626.39591091 -723.375 2626.375 C-719.75342723 2618.97511755 -715.96447549 2611.73963467 -711.8125 2604.625 C-705.1060709 2592.99560977 -698.68038349 2581.22614936 -692.375 2569.375 C-691.57570068 2567.87332275 -691.57570068 2567.87332275 -690.76025391 2566.34130859 C-661.10889467 2510.39889828 -636.17687175 2452.3971953 -613.375 2393.375 C-613.12254517 2392.721828 -612.87009033 2392.06865601 -612.60998535 2391.39569092 C-611.10036695 2387.4841857 -609.6067978 2383.56693447 -608.12307739 2379.64553833 C-607.37660933 2377.6917123 -606.61126052 2375.74608299 -605.84350586 2373.80053711 C-602.94548426 2366.33568724 -600.73954722 2358.97492748 -598.96484375 2351.1640625 C-593.18286278 2326.98691249 -593.18286278 2326.98691249 -586.72857666 2322.13812256 C-578.79340708 2317.86329179 -569.27208957 2317.51042952 -560.45056152 2316.95639038 C-552.74032088 2316.45594801 -545.50056166 2314.80319412 -538.04074097 2312.85916138 C-535.94177912 2312.3136122 -533.83851912 2311.78949396 -531.73266602 2311.27124023 C-522.18285304 2308.91093269 -512.75754124 2306.27101861 -503.37939453 2303.30761719 C-499.66705542 2302.15524148 -495.94134157 2301.05086288 -492.21484375 2299.9453125 C-472.6472466 2294.11978359 -453.41026429 2287.7858783 -434.375 2280.375 C-433.74051941 2280.12834595 -433.10603882 2279.88169189 -432.45233154 2279.62756348 C-390.4894094 2263.27659804 -349.17150317 2244.29952868 -310.375 2221.375 C-309.52099609 2220.87307129 -308.66699219 2220.37114258 -307.78710938 2219.85400391 C-301.94935423 2216.41555289 -296.14952176 2212.91853723 -290.375 2209.375 C-289.6133252 2208.90803711 -288.85165039 2208.44107422 -288.06689453 2207.95996094 C-256.28381588 2188.3854477 -225.96496717 2166.50223566 -197.13085938 2142.81494141 C-195.56564408 2141.53134299 -193.994183 2140.25536928 -192.421875 2138.98046875 C-181.51491194 2130.13052065 -170.90126306 2121.01589323 -160.70019531 2111.35864258 C-157.74607923 2108.56521923 -154.76333194 2105.83231142 -151.67749023 2103.18457031 C-147.26049376 2099.3286701 -143.10376438 2095.24814558 -138.96484375 2091.09765625 C-138.19370743 2090.32747665 -137.42257111 2089.55729706 -136.62806702 2088.76377869 C-135.00919847 2087.14558627 -133.39157449 2085.52614788 -131.77514648 2083.90551758 C-129.31931282 2081.44432768 -126.85818635 2078.98852191 -124.39648438 2076.53320312 C-122.81478347 2074.95084133 -121.23339283 2073.36816933 -119.65234375 2071.78515625 C-118.92611313 2071.06094986 -118.19988251 2070.33674347 -117.4516449 2069.59059143 C-113.44616304 2065.56692699 -109.60697868 2061.45285834 -105.90745544 2057.14556885 C-103.51409761 2054.38033033 -101.00155061 2051.72944586 -98.5 2049.0625 C-94.0412052 2044.26985085 -89.81379209 2039.35310172 -85.71484375 2034.24609375 C-83.51654864 2031.54868656 -81.2645998 2028.91211781 -78.98486328 2026.28393555 C-73.79802116 2020.3040909 -68.83956083 2014.21977035 -64.0625 2007.90625 C-62.09022087 2005.3004509 -60.08482576 2002.72340325 -58.0625 2000.15625 C-33.72676574 1969.247303 -11.44337162 1935.78620004 7.625 1901.375 C8.34798845 1900.09971008 9.07200234 1898.82500113 9.796875 1897.55078125 C25.84505141 1869.1948803 40.29625818 1839.96058691 52.9375 1809.9375 C53.27039032 1809.14715363 53.60328064 1808.35680725 53.94625854 1807.54251099 C60.69168096 1791.48585214 67.14336335 1775.37009536 72.5625 1758.8125 C72.98688923 1757.52595828 73.41153677 1756.23950175 73.83642578 1754.953125 C75.10775393 1751.096487 76.36755559 1747.23618798 77.625 1743.375 C78.00897949 1742.19695801 78.39295898 1741.01891602 78.78857422 1739.80517578 C82.60979489 1728.05002215 86.34301232 1716.29306542 89.625 1704.375 C90.01439869 1703.01917845 90.40510378 1701.66373165 90.796875 1700.30859375 C93.92144307 1689.42013207 96.54180081 1678.45520443 98.96142578 1667.39013672 C99.63692755 1664.32080383 100.3314772 1661.25618019 101.02734375 1658.19140625 C109.15921564 1621.91933601 114.40302511 1585.39444376 117.625 1548.375 C117.75035126 1546.93960876 117.75035126 1546.93960876 117.87823486 1545.47521973 C121.65643058 1501.57875967 122.21556807 1457.31445654 118.7767334 1413.37438965 C118.62345793 1411.3546801 118.48380163 1409.33447419 118.34863281 1407.31347656 C112.60898753 1321.71360529 92.74249993 1235.90235068 39.625 1107.375 C39.13708984 1106.31796875 38.64917969 1105.2609375 38.14648438 1104.171875 C25.54723999 1077.02979507 11.19870432 1050.91447309 -4.375 1025.375 C-5.31641846 1023.82474121 -5.31641846 1023.82474121 -6.27685547 1022.24316406 C-14.87241488 1008.1313188 -23.98033631 994.4551952 -33.53515625 980.97607422 C-35.23261404 978.57629778 -36.91625911 976.16766429 -38.59375 973.75390625 C-45.57097607 963.73729822 -52.88349543 954.01163869 -60.375 944.375 C-60.85855957 943.74964355 -61.34211914 943.12428711 -61.84033203 942.47998047 C-67.64113857 934.9800085 -73.60706446 927.65466577 -79.76953125 920.44921875 C-82.13364187 917.67800845 -84.41343958 914.84572811 -86.6875 912 C-91.55572793 906.00900959 -96.84659208 900.43964115 -102.140625 894.828125 C-104.57148811 892.24724291 -106.94051543 889.62836734 -109.25 886.9375 C-112.14718693 883.5671544 -115.26427602 880.46883084 -118.4296875 877.3515625 C-120.21016288 875.5424851 -121.86042586 873.68618051 -123.5 871.75 C-130.83922125 863.22975464 -139.00709139 855.2099524 -147.5859375 847.9453125 C-149.6081628 846.17034619 -151.48714627 844.29200977 -153.375 842.375 C-156.5461603 839.16065269 -159.83082753 836.15749037 -163.25390625 833.21484375 C-165.59991058 831.17991181 -167.8923645 829.09209033 -170.1875 827 C-174.50409713 823.1045343 -178.9490113 819.40641782 -183.46875 815.75 C-186.02816866 813.65843207 -188.55132216 811.53389954 -191.06396484 809.38696289 C-197.71074404 803.70871438 -204.50850569 798.25901795 -211.41503906 792.90087891 C-213.55142254 791.23765061 -215.67835484 789.56277459 -217.8046875 787.88671875 C-226.47649453 781.06797187 -235.229932 774.54902538 -244.375 768.375 C-245.55856689 767.55522349 -246.74080638 766.73352798 -247.921875 765.91015625 C-294.03537754 733.8114244 -343.05719926 706.63191359 -394.24609375 683.5625 C-394.86195343 683.28481277 -395.47781311 683.00712555 -396.11233521 682.72102356 C-400.18123396 680.89334255 -404.27130849 679.12261957 -408.375 677.375 C-408.52557861 677.90109863 -408.67615723 678.42719727 -408.83129883 678.96923828 C-410.43196333 684.43727628 -412.18219716 689.84689522 -414.01171875 695.2421875 C-414.25351868 695.95553253 -414.4953186 696.66887756 -414.7444458 697.40383911 C-414.99329529 698.13795013 -415.24214478 698.87206116 -415.49853516 699.62841797 C-421.29984529 716.74661015 -426.66819168 733.91911124 -431.375 751.375 C-431.56964844 752.09469971 -431.76429687 752.81439941 -431.96484375 753.5559082 C-437.2591027 773.14092038 -442.30432944 792.74993807 -446.73242188 812.55078125 C-447.55422508 816.16271873 -448.43011578 819.76026924 -449.30908203 823.35864258 C-452.10860775 834.84713916 -454.46697567 846.40440887 -456.72021484 858.01123047 C-457.37497986 861.37489652 -458.0401891 864.73636562 -458.70703125 868.09765625 C-467.14040852 910.85175117 -474.50726252 953.74690617 -480.57348633 996.89892578 C-481.69623463 1004.85221465 -482.92020465 1012.77643603 -484.3125 1020.6875 C-486.64894978 1034.1253728 -488.29321979 1047.65972805 -490.02758789 1061.18530273 C-490.289172 1063.22510449 -490.55080954 1065.26489939 -490.8125 1067.3046875 C-490.94293198 1068.32162186 -491.07336395 1069.33855621 -491.20774841 1070.38630676 C-492.3785688 1079.47791378 -493.62781184 1088.55776784 -494.88803101 1097.6373291 C-500.49554511 1138.11203594 -505.48404172 1178.68069427 -510.01611328 1219.28921509 C-510.11005371 1220.13092255 -510.20399414 1220.97263 -510.30078125 1221.83984375 C-510.43830811 1223.07255508 -510.43830811 1223.07255508 -510.57861328 1224.33016968 C-511.4399166 1232.01809571 -512.36874825 1239.69677458 -513.3125 1247.375 C-515.02128349 1261.30533811 -516.64504295 1275.24483479 -518.25 1289.1875 C-518.37687195 1290.28896362 -518.5037439 1291.39042725 -518.63446045 1292.52526855 C-519.9392857 1303.85600597 -521.23966547 1315.18724677 -522.534729 1326.519104 C-523.16760895 1332.05456085 -523.80202534 1337.58984045 -524.4375 1343.125 C-524.56268005 1344.21544617 -524.68786011 1345.30589233 -524.8168335 1346.42938232 C-526.51564551 1361.20188735 -528.30150654 1375.96045059 -530.18054199 1390.71102905 C-531.84886657 1403.8327371 -533.35691248 1416.96859156 -534.81808472 1430.11486816 C-537.35696469 1452.95031598 -540.14986831 1475.74670525 -543.08034706 1498.53485394 C-543.50724096 1501.85519655 -543.93354944 1505.17561396 -544.359375 1508.49609375 C-544.44366131 1509.15317888 -544.52794762 1509.81026402 -544.61478806 1510.48726082 C-546.36121021 1524.12015428 -547.99770063 1537.76558143 -549.62097168 1551.41360474 C-552.09680655 1572.22495791 -554.77968395 1592.98055592 -557.84277344 1613.71289062 C-558.67325412 1619.42720727 -559.43341948 1625.15017702 -560.1875 1630.875 C-560.50768508 1633.29168355 -560.82800792 1635.70834885 -561.1484375 1638.125 C-561.23697998 1638.79307678 -561.32552246 1639.46115356 -561.41674805 1640.1494751 C-561.73600832 1642.55800425 -562.0554899 1644.96650398 -562.375 1647.375 C-562.51248657 1648.41188965 -562.64997314 1649.4487793 -562.79162598 1650.51708984 C-570.3067151 1707.1491579 -570.3067151 1707.1491579 -573.78833008 1727.0612793 C-575.1914853 1735.0954453 -576.34686112 1743.13714811 -577.30004883 1751.23730469 C-577.93407043 1756.49634699 -578.76547965 1761.70214845 -579.70605469 1766.91430664 C-581.34459645 1776.1014042 -582.86860644 1785.30595237 -584.38023758 1794.51465225 C-585.21209636 1799.57677433 -586.04997315 1804.63790258 -586.88671875 1809.69921875 C-587.93602507 1816.04813573 -588.98380124 1822.3972904 -590.02490234 1828.74755859 C-594.55028863 1856.33622088 -599.43938617 1883.82444462 -604.80486965 1911.26238441 C-606.64716641 1920.71242129 -608.39331628 1930.17995872 -610.13445663 1939.64906502 C-612.79518525 1954.09565253 -615.5182864 1968.51784389 -618.62207031 1982.87695312 C-619.37332145 1986.36720159 -620.11479166 1989.85940288 -620.85427856 1993.35215759 C-627.82472872 2026.2691712 -635.16109055 2059.05939936 -643.43701172 2091.67407227 C-645.7039112 2100.61835368 -647.95687076 2109.56469926 -650.0859375 2118.54296875 C-650.36179687 2119.70505859 -650.63765625 2120.86714844 -650.921875 2122.06445312 C-651.46916576 2124.37624027 -652.0134909 2126.68873173 -652.5546875 2129.00195312 C-654.69527572 2137.98548658 -657.18242716 2146.84276666 -659.74609375 2155.71313477 C-661.41560428 2161.49397187 -663.03239955 2167.28888414 -664.64453125 2173.0859375 C-685.07748844 2246.33453488 -708.07253401 2319.13042356 -737.375 2389.375 C-737.77531433 2390.33714417 -737.77531433 2390.33714417 -738.18371582 2391.31872559 C-753.74027624 2428.70009896 -769.77112474 2466.24039465 -789.04541016 2501.88037109 C-791.2077071 2505.9373579 -793.29176039 2510.0343168 -795.3894043 2514.125 C-806.82168727 2536.3779815 -819.35592336 2557.87075152 -832.42578125 2579.18896484 C-834.17863779 2582.05404222 -835.92064215 2584.92523395 -837.65625 2587.80078125 C-838.14399902 2588.60668701 -838.63174805 2589.41259277 -839.13427734 2590.24291992 C-839.99625924 2591.667486 -840.8562344 2593.09327004 -841.71337891 2594.52075195 C-844.4585502 2599.03853594 -847.43658657 2603.35487924 -850.48779297 2607.67089844 C-854.58626889 2613.54343651 -858.48200005 2619.55629606 -862.4140625 2625.54101562 C-865.98651645 2630.93762801 -869.6619407 2636.15947379 -873.68652344 2641.2277832 C-875.97116568 2644.13313724 -878.135153 2647.11992454 -880.30786133 2650.109375 C-886.91135569 2659.19477714 -893.78420746 2667.9974432 -900.94677734 2676.64697266 C-902.97962269 2679.10654178 -904.98797623 2681.58588815 -907 2684.0625 C-914.49039678 2693.19612825 -922.10533467 2702.17952305 -930.09765625 2710.87890625 C-932.1229556 2713.09874551 -934.10097771 2715.34893516 -936.0625 2717.625 C-938.7575789 2720.73033681 -941.60077119 2723.62568628 -944.53564453 2726.50317383 C-946.2980149 2728.29665586 -947.93475761 2730.14624728 -949.56640625 2732.05859375 C-953.46546638 2736.54132699 -957.60144645 2740.74918841 -961.8125 2744.9375 C-962.52470703 2745.65357422 -963.23691406 2746.36964844 -963.97070312 2747.10742188 C-968.04303248 2751.17235372 -972.20671126 2755.06360699 -976.58422852 2758.79858398 C-978.42795686 2760.42161792 -980.15555551 2762.12153772 -981.875 2763.875 C-985.53796626 2767.58713359 -989.41734601 2770.98180882 -993.375 2774.375 C-994.4183138 2775.28215539 -995.46125379 2776.18974081 -996.50390625 2777.09765625 C-1003.98257162 2783.58754808 -1011.61686072 2789.82090717 -1019.44873047 2795.87841797 C-1021.5273761 2797.49338599 -1023.5942699 2799.12265255 -1025.66015625 2800.75390625 C-1041.35053569 2813.11084853 -1057.65827901 2824.45460088 -1074.375 2835.375 C-1075.11411621 2835.85936523 -1075.85323242 2836.34373047 -1076.61474609 2836.84277344 C-1159.70849642 2891.05560596 -1255.70153466 2922.79391958 -1417.48535156 2943.33691406 C-1426.10802897 2943.85441739 -1434.69361974 2944.45401975 -1443.28125 2945.3984375 C-1458.50039744 2947.06622254 -1473.57384608 2947.6126268 -1488.875 2947.625 C-1489.85900787 2947.62633942 -1490.84301575 2947.62767883 -1491.85684204 2947.62905884 C-1509.20489358 2947.62396737 -1526.17033563 2946.69101251 -1543.375 2944.375 C-1544.22835938 2944.26285156 -1545.08171875 2944.15070312 -1545.9609375 2944.03515625 C-1551.13863408 2943.32910672 -1556.25315172 2942.40696943 -1561.375 2941.375 C-1562.40657227 2941.17003906 -1563.43814453 2940.96507813 -1564.50097656 2940.75390625 C-1595.09951653 2934.61164192 -1623.77981999 2925.68090274 -1652.08154297 2912.44384766 C-1654.27827328 2911.42007873 -1656.48310752 2910.41649061 -1658.69140625 2909.41796875 C-1683.85596977 2897.94868437 -1707.93904959 2883.51635989 -1730.375 2867.375 C-1731.49551758 2866.5711084 -1731.49551758 2866.5711084 -1732.63867188 2865.75097656 C-1758.48214119 2847.13815745 -1782.36991294 2826.39434531 -1804.9375 2803.9375 C-1805.58001709 2803.29965576 -1806.22253418 2802.66181152 -1806.88452148 2802.00463867 C-1810.68149222 2798.19477499 -1814.28535771 2794.26468301 -1817.80102539 2790.1940918 C-1819.76430316 2787.92507013 -1821.78681252 2785.71332205 -1823.8125 2783.5 C-1828.21274498 2778.61166062 -1832.34297599 2773.56984322 -1836.375 2768.375 C-1837.09478027 2767.4480835 -1837.09478027 2767.4480835 -1837.82910156 2766.50244141 C-1854.4138172 2745.09967684 -1869.30325035 2723.11464453 -1882.375 2699.375 C-1882.8714502 2698.47539551 -1883.36790039 2697.57579102 -1883.87939453 2696.64892578 C-1909.24088874 2650.3276555 -1926.15766224 2598.86048395 -1932.375 2546.375 C-1932.46720825 2545.6286882 -1932.5594165 2544.8823764 -1932.65441895 2544.1134491 C-1934.57294229 2528.28070603 -1934.65102765 2512.5182214 -1934.57061768 2496.58837891 C-1934.55976037 2493.87878612 -1934.56019723 2491.16924268 -1934.5606184 2488.45963192 C-1934.5600191 2471.53294837 -1934.43340137 2454.74040977 -1932.1875 2437.9375 C-1932.06366943 2437.00212402 -1931.93983887 2436.06674805 -1931.81225586 2435.10302734 C-1929.03865803 2415.07594863 -1925.45491207 2394.9476024 -1920.375 2375.375 C-1915.40723917 2378.97906178 -1910.66675493 2382.76969295 -1906 2386.75 C-1901.44835387 2390.63182781 -1896.85149948 2394.43445807 -1892.1640625 2398.15234375 C-1888.57006441 2401.01646828 -1885.00322672 2403.91329914 -1881.4375 2406.8125 C-1880.39372192 2407.66110596 -1880.39372192 2407.66110596 -1879.32885742 2408.52685547 C-1874.63888499 2412.34218308 -1869.95798542 2416.16845773 -1865.28125 2420 C-1861.65194677 2422.96588221 -1858.01363079 2425.92057433 -1854.375 2428.875 C-1851.70808274 2431.04135837 -1849.04145771 2433.20807602 -1846.375 2435.375 C-1845.79524414 2435.84599121 -1845.21548828 2436.31698242 -1844.61816406 2436.80224609 C-1843.0777792 2438.05443879 -1841.53883839 2439.3084073 -1840 2440.5625 C-1839.14664063 2441.25730469 -1838.29328125 2441.95210937 -1837.4140625 2442.66796875 C-1833.41110454 2446.01910405 -1833.41110454 2446.01910405 -1833.07202148 2449.36157227 C-1833.04696533 2450.62541748 -1833.02190918 2451.8892627 -1832.99609375 2453.19140625 C-1832.97959778 2453.87474533 -1832.96310181 2454.55808441 -1832.94610596 2455.26213074 C-1832.91159133 2456.7262989 -1832.88130935 2458.19057175 -1832.85482788 2459.65490723 C-1832.81227451 2461.9496599 -1832.75654764 2464.24372761 -1832.6965332 2466.53808594 C-1832.61848135 2469.52223842 -1832.54284658 2472.50642128 -1832.47070312 2475.49072266 C-1830.53431023 2554.08258739 -1800.56186438 2636.94327748 -1746.6328125 2694.9296875 C-1744.69001563 2697.03382391 -1742.83883928 2699.18082946 -1741 2701.375 C-1707.64325635 2739.55253177 -1655.70181515 2764.03893763 -1606.875 2774.0625 C-1605.89072021 2774.26528564 -1604.90644043 2774.46807129 -1603.89233398 2774.67700195 C-1589.09858008 2777.57382483 -1574.42718173 2778.8150271 -1559.375 2778.8125 C-1558.56361572 2778.81389984 -1557.75223145 2778.81529968 -1556.91625977 2778.81674194 C-1539.72020484 2778.79267952 -1523.23071352 2776.63776966 -1506.375 2773.375 C-1505.34004395 2773.18276855 -1504.30508789 2772.99053711 -1503.23876953 2772.79248047 C-1462.79267456 2765.14863986 -1423.37294088 2746.18315333 -1389.375 2723.375 C-1388.66811035 2722.90465332 -1387.9612207 2722.43430664 -1387.23291016 2721.94970703 C-1377.99254564 2715.78307814 -1369.08984814 2709.26123458 -1360.375 2702.375 C-1359.53839844 2701.72144531 -1358.70179688 2701.06789063 -1357.83984375 2700.39453125 C-1348.46620027 2693.00230834 -1339.41209288 2685.20365682 -1330.625 2677.125 C-1327.26501347 2674.03598012 -1323.84859538 2671.1194044 -1320.25 2668.3125 C-1316.02171132 2664.99409622 -1312.27883483 2661.38170899 -1308.53125 2657.53515625 C-1305.89528097 2654.89441192 -1303.10398648 2652.48247062 -1300.2734375 2650.0546875 C-1298.39529247 2648.39295424 -1296.63194484 2646.66374475 -1294.875 2644.875 C-1292.50457643 2642.46167283 -1290.06763692 2640.20228147 -1287.5 2638 C-1283.75266297 2634.77352835 -1280.28598784 2631.32940285 -1276.84375 2627.78125 C-1274.8365924 2625.82490652 -1272.80105039 2623.9987984 -1270.67797852 2622.17358398 C-1266.64877434 2618.65873659 -1262.83208118 2614.97731714 -1259.05859375 2611.19140625 C-1258.39843765 2610.53220688 -1257.73828156 2609.87300751 -1257.05812073 2609.1938324 C-1255.67464494 2607.81103165 -1254.29240917 2606.42698924 -1252.91137695 2605.04174805 C-1250.81768331 2602.94269657 -1248.71870126 2600.8490406 -1246.61914062 2598.75585938 C-1245.26530429 2597.40136214 -1243.91177825 2596.04655469 -1242.55859375 2594.69140625 C-1241.94173203 2594.07656876 -1241.3248703 2593.46173126 -1240.6893158 2592.82826233 C-1236.93884443 2589.05789827 -1233.3758955 2585.16915789 -1229.90318298 2581.14129639 C-1227.8202478 2578.73380924 -1225.66007345 2576.40076133 -1223.5 2574.0625 C-1218.57994907 2568.6593625 -1213.92580958 2563.09106877 -1209.375 2557.375 C-1208.62992188 2556.45976562 -1207.88484375 2555.54453125 -1207.1171875 2554.6015625 C-1173.30490696 2512.08513053 -1151.94132621 2460.58975651 -1132.375 2410.375 C-1132.102323 2409.67644897 -1131.829646 2408.97789795 -1131.54870605 2408.25817871 C-1123.38795492 2387.34618039 -1115.46192757 2366.34779346 -1107.625 2345.3125 C-1107.21743469 2344.21905273 -1106.80986938 2343.12560547 -1106.38995361 2341.99902344 C-1102.54954983 2331.68999642 -1098.71580561 2321.37954586 -1095.00390625 2311.0234375 C-1087.39457494 2289.82318557 -1087.39457494 2289.82318557 -1082.28149414 2280.171875 C-1074.28543429 2264.8662344 -1069.45721769 2247.8734802 -1064.125 2231.5 C-1063.87455933 2230.7329776 -1063.62411865 2229.9659552 -1063.36608887 2229.1756897 C-1060.16768046 2219.34883111 -1057.22352688 2209.47893756 -1054.5168457 2199.50537109 C-1053.54289012 2195.93477645 -1052.49381893 2192.39069716 -1051.41423035 2188.85072327 C-1048.98931621 2180.88875275 -1047.07937636 2172.88473587 -1045.33203125 2164.75 C-1044.46908508 2160.74914726 -1043.50440338 2156.78051336 -1042.5 2152.8125 C-1042.16134261 2151.46617494 -1041.82280549 2150.11981962 -1041.484375 2148.7734375 C-1040.91852579 2146.52536148 -1040.35018271 2144.27803474 -1039.77539062 2142.03222656 C-1030.52496349 2105.69939507 -1023.84724236 2068.70537024 -1017.62492371 2031.75318909 C-1016.75041745 2026.56224425 -1015.84812368 2021.37724723 -1014.921875 2016.1953125 C-1012.85195135 2004.56666315 -1010.96663631 1992.90670119 -1009.0625 1981.25 C-1008.86491089 1980.04113129 -1008.66732178 1978.83226257 -1008.46374512 1977.58676147 C-1001.38212272 1934.21914297 -994.99433013 1890.82168477 -989.60546875 1847.2109375 C-988.1075704 1835.10811024 -986.5387595 1823.01857114 -984.875 1810.9375 C-981.91879714 1789.42384117 -979.32455213 1767.86623788 -976.72851562 1746.30664062 C-976.39319481 1743.52588625 -976.0563359 1740.74532395 -975.71875 1737.96484375 C-972.9846357 1715.43921 -970.41450678 1692.89796409 -967.92236328 1670.34429932 C-965.40305438 1647.54622168 -962.78546016 1624.76383178 -959.97265625 1602 C-959.4606878 1597.85419745 -958.94897685 1593.70836323 -958.4375 1589.5625 C-958.30925842 1588.52370697 -958.18101685 1587.48491394 -958.04888916 1586.41464233 C-956.06274493 1570.29896005 -954.20776021 1554.17222771 -952.43826294 1538.03143311 C-950.78511838 1522.95515945 -949.01800299 1507.89841843 -947.16349792 1492.84555054 C-946.46411127 1487.14789802 -945.7905689 1481.44733003 -945.12109375 1475.74609375 C-941.33423753 1443.53153555 -941.33423753 1443.53153555 -939.53222656 1431.60668945 C-938.16878608 1422.36797942 -937.14467194 1413.08735132 -936.0625 1403.8125 C-934.10583291 1387.06435251 -931.92305231 1370.35694111 -929.60839844 1353.65478516 C-928.0395609 1342.32272986 -926.54562834 1330.98427526 -925.11984253 1319.63336182 C-923.33963846 1305.46632422 -921.37104014 1291.34521721 -919.17944336 1277.23608398 C-917.78793271 1268.25510892 -916.53988059 1259.26308668 -915.375 1250.25 C-913.86641262 1238.61155627 -912.07808111 1227.04073724 -910.16674805 1215.46362305 C-908.74709289 1206.82586899 -907.46183248 1198.18258151 -906.36303711 1189.49804688 C-905.72620867 1184.55478436 -904.86302404 1179.70991245 -903.85473633 1174.8293457 C-903.09629411 1170.94913217 -902.58553451 1167.04264643 -902.0625 1163.125 C-900.67768283 1153.11464617 -899.03919524 1143.15432323 -897.35668945 1133.19018555 C-896.22693537 1126.4939554 -895.11377332 1119.79634317 -894.046875 1113.08984375 C-893.88310867 1112.06262207 -893.88310867 1112.06262207 -893.71603394 1111.01464844 C-893.19454395 1107.74095534 -892.67618911 1104.4668405 -892.16259766 1101.19189453 C-891.00659842 1093.92407546 -889.66630394 1086.71801937 -888.19628906 1079.50756836 C-886.70484919 1072.09950385 -885.41061218 1064.65299053 -884.07376099 1057.21585083 C-880.79261929 1038.98399985 -877.41008809 1020.77715469 -873.81512451 1002.60424805 C-873.33210747 1000.15774762 -872.85170135 997.71074259 -872.37158203 995.26367188 C-867.830369 972.13509909 -863.11439998 949.06250164 -857.89077759 926.07795715 C-856.67050512 920.70391517 -855.47925798 915.32389747 -854.296875 909.94140625 C-849.13701643 886.5255258 -843.44686929 863.26189852 -837.55938721 840.01901245 C-835.93986023 833.62345746 -834.33752978 827.22388175 -832.75 820.8203125 C-832.34245188 819.17870995 -831.9348999 817.53710837 -831.52734375 815.89550781 C-830.96259799 813.6201843 -830.39839143 811.3447374 -829.83642578 809.06872559 C-827.5412018 799.7784563 -825.04194558 790.56568233 -822.375 781.375 C-821.77778915 779.24235267 -821.18977351 777.10742196 -820.60375977 774.97167969 C-815.16763768 755.16918895 -809.22869053 735.51890743 -803.25 715.875 C-802.94845001 714.88399292 -802.64690002 713.89298584 -802.33621216 712.87194824 C-800.35683016 706.37059845 -798.36909048 699.87185246 -796.375 693.375 C-796.14917236 692.63724335 -795.92334473 691.89948669 -795.69067383 691.13937378 C-792.37783587 680.33255531 -788.80004527 669.62614347 -785.125 658.9375 C-784.83887848 658.10408081 -784.55275696 657.27066162 -784.25796509 656.4119873 C-779.42834112 642.35114582 -774.55541666 628.31123425 -769.375 614.375 C-769.11027893 613.6627124 -768.84555786 612.9504248 -768.57281494 612.21655273 C-755.01631434 575.78603304 -740.53600965 539.73492414 -724.375 504.375 C-723.87564941 503.27478516 -723.37629883 502.17457031 -722.86181641 501.04101562 C-715.21404666 484.2288399 -707.11585893 467.6535506 -698.875 451.125 C-698.15972137 449.68654221 -698.15972137 449.68654221 -697.42999268 448.21902466 C-688.31929167 429.9196611 -688.31929167 429.9196611 -683.51171875 422.21630859 C-682.03699503 419.82748422 -680.81893257 417.35154491 -679.625 414.8125 C-676.10040283 407.65485651 -672.03798018 400.86227148 -667.94726562 394.01904297 C-666.19598638 391.0739569 -664.46446067 388.11774039 -662.734375 385.16015625 C-650.50936102 364.3069747 -637.75418663 343.86521646 -623.74609375 324.15234375 C-620.89670449 320.13852875 -618.1328193 316.07295779 -615.38525391 311.98901367 C-610.47585385 304.70407381 -605.39679788 297.67799726 -599.83251953 290.87915039 C-596.12543403 286.34915318 -592.60358762 281.70722785 -589.125 277 C-585.38405704 271.95577624 -581.54992919 267.12951069 -577.29296875 262.50390625 C-575.10198287 260.07195654 -573.05394398 257.54861112 -571 255 C-567.06344628 250.14717947 -562.93211542 245.51667152 -558.703125 240.91796875 C-556.76805738 238.80432946 -554.87291703 236.66840152 -553 234.5 C-543.64304991 223.76702784 -533.74553456 213.58359208 -523.66455078 203.53417969 C-521.60982492 201.48486489 -519.56056897 199.43018737 -517.51171875 197.375 C-516.18000835 196.04394975 -514.84798812 194.71320939 -513.515625 193.3828125 C-512.91647278 192.78163605 -512.31732056 192.18045959 -511.70001221 191.56106567 C-507.97458507 187.85583983 -504.12633889 184.34117725 -500.1474762 180.90936279 C-497.73836077 178.82388651 -495.40289063 176.66204048 -493.0625 174.5 C-488.57135987 170.40422846 -483.95905906 166.5157842 -479.2265625 162.703125 C-476.76032759 160.68959622 -474.34644541 158.62787801 -471.94213867 156.54125977 C-463.90110509 149.59507949 -455.38666157 143.34710721 -446.78173828 137.12158203 C-444.50072273 135.46623761 -442.23127532 133.79632662 -439.96484375 132.12109375 C-424.02619245 120.39326182 -407.45859498 109.45888806 -390.34375 99.51904297 C-388.95078088 98.70958695 -387.56040216 97.8956655 -386.171875 97.07861328 C-319.46648637 57.85882663 -246.28786744 31.11116839 -170.375 16.375 C-168.93108887 16.09366211 -168.93108887 16.09366211 -167.45800781 15.80664062 C-151.76398121 12.80128607 -135.93987124 10.76622809 -120.08496094 8.83203125 C-116.7757226 8.42436514 -113.46984469 7.99710332 -110.1640625 7.5625 C-94.24705962 5.53170549 -78.2906777 4.45521162 -62.28051758 3.46459961 C-60.46822334 3.35070665 -58.65596691 3.23621046 -56.84375 3.12109375 C-55.94735306 3.06450089 -55.05095612 3.00790802 -54.12739563 2.94960022 C-49.36577978 2.63217004 -44.65085766 2.19392147 -39.91873169 1.58049011 C-26.65482922 -0.12543772 -13.35437168 -0.01902272 0 0 Z " fill="#FEFEFE" transform="translate(2194.375,17.625)"/>
</svg>
